<?xml version="1.0" encoding="UTF-8" standalone="no"?>
<!-- Generator: Adobe Illustrator 16.0.0, SVG Export Plug-In . SVG Version: 6.00 Build 0)  -->

<svg
   xmlns:dc="http://purl.org/dc/elements/1.1/"
   xmlns:cc="http://creativecommons.org/ns#"
   xmlns:rdf="http://www.w3.org/1999/02/22-rdf-syntax-ns#"
   xmlns:svg="http://www.w3.org/2000/svg"
   xmlns="http://www.w3.org/2000/svg"
   xmlns:sodipodi="http://sodipodi.sourceforge.net/DTD/sodipodi-0.dtd"
   xmlns:inkscape="http://www.inkscape.org/namespaces/inkscape"
   version="1.1"
   id="Capa_1"
   x="0px"
   y="0px"
   width="447.185px"
   height="447.185px"
   viewBox="0 0 447.185 447.185"
   style="enable-background:new 0 0 447.185 447.185;"
   xml:space="preserve"
   sodipodi:docname="rupee.svg"
   inkscape:version="0.92.3 (2405546, 2018-03-11)"><metadata
   id="metadata926"><rdf:RDF><cc:Work
       rdf:about=""><dc:format>image/svg+xml</dc:format><dc:type
         rdf:resource="http://purl.org/dc/dcmitype/StillImage" /></cc:Work></rdf:RDF></metadata><defs
   id="defs924" /><sodipodi:namedview
   pagecolor="#ffffff"
   bordercolor="#666666"
   borderopacity="1"
   objecttolerance="10"
   gridtolerance="10"
   guidetolerance="10"
   inkscape:pageopacity="0"
   inkscape:pageshadow="2"
   inkscape:window-width="1920"
   inkscape:window-height="1001"
   id="namedview922"
   showgrid="false"
   inkscape:zoom="0.52774579"
   inkscape:cx="223.5925"
   inkscape:cy="223.5925"
   inkscape:window-x="-9"
   inkscape:window-y="-9"
   inkscape:window-maximized="1"
   inkscape:current-layer="Capa_1" />
<g
   id="g889"
   style="fill:#717fe0;fill-opacity:1">
	<path
   d="m 358.204,96.283 h -33.437 c -2.211,-19.379 -8.961,-37.519 -19.672,-51.56 h 53.108 c 12.721,0 23.022,-9.499 23.022,-22.216 0,-12.723 -10.302,-22.484 -23.022,-22.484 H 178.118 C 177.459,0.023 176.824,0 176.147,0 175.709,0 175.27,0.023 174.832,0.023 H 88.981 c -12.72,0 -23.022,9.768 -23.022,22.484 0,12.716 10.302,22.216 23.022,22.216 h 102.097 c 32.243,2.347 66.017,14.821 74.913,51.56 H 88.981 c -12.72,0 -23.022,10.309 -23.022,23.031 0,12.717 10.302,23.031 23.022,23.031 h 174.716 c -10.87,29.034 -40.728,46.742 -82.225,46.742 h -45.788 -0.133 -26.699 c -12.401,0 -22.455,10.054 -22.455,22.455 0,12.404 10.054,22.458 22.455,22.458 h 26.382 c 0.109,0.012 0.207,0.065 0.316,0.065 h 41.665 c 45.268,1.72 65.402,21.35 76.946,75.055 9.032,39.892 15.682,65.875 20.912,81.438 3.919,14.398 11.674,36.091 25.127,49.048 5.261,5.059 12.046,7.577 18.808,7.577 7.117,0 14.233,-2.784 19.559,-8.322 9.76,-10.144 9.937,-25.842 0.993,-36.334 -0.041,-0.124 -0.023,-0.26 -0.088,-0.384 -8.258,-15.32 -18.247,-56.412 -30.435,-108.533 -9.688,-42.381 -27.787,-68.778 -55.213,-80.499 34.437,-13.22 58.127,-38.506 67.412,-70.772 h 36.966 c 12.721,0 23.022,-10.314 23.022,-23.031 0,-12.717 -10.299,-23.025 -23.02,-23.025 z"
   id="path887"
   inkscape:connector-curvature="0"
   style="fill:#717fe0;fill-opacity:1" />
</g>
<g
   id="g891">
</g>
<g
   id="g893">
</g>
<g
   id="g895">
</g>
<g
   id="g897">
</g>
<g
   id="g899">
</g>
<g
   id="g901">
</g>
<g
   id="g903">
</g>
<g
   id="g905">
</g>
<g
   id="g907">
</g>
<g
   id="g909">
</g>
<g
   id="g911">
</g>
<g
   id="g913">
</g>
<g
   id="g915">
</g>
<g
   id="g917">
</g>
<g
   id="g919">
</g>
</svg>